<?xml version="1.0" encoding="UTF-8"?><svg id="_レイヤー_2" xmlns="http://www.w3.org/2000/svg" xmlns:xlink="http://www.w3.org/1999/xlink" viewBox="0 0 200.81 359.5"><defs><style>.cls-1,.cls-2,.cls-3,.cls-4,.cls-5,.cls-6,.cls-7,.cls-8{stroke:#18499e;}.cls-1,.cls-2,.cls-3,.cls-4,.cls-5,.cls-7,.cls-8{stroke-linecap:round;stroke-linejoin:round;}.cls-1,.cls-9{fill:#f2e634;}.cls-1,.cls-7,.cls-8{stroke-width:3px;}.cls-2,.cls-3,.cls-8{fill:none;}.cls-2,.cls-5{stroke-width:1.41px;}.cls-10{letter-spacing:.1em;}.cls-9{font-size:48px;letter-spacing:.1em;}.cls-9,.cls-11{font-family:Futura-Bold, Futura;font-weight:700;}.cls-4{stroke-width:3.25px;}.cls-4,.cls-6,.cls-12{fill:#18499e;}.cls-13{letter-spacing:.18em;}.cls-14{letter-spacing:.04em;}.cls-5{fill:url(#_名称未設定グラデーション_84);}.cls-6{stroke-miterlimit:10;stroke-width:.95px;}.cls-11{font-size:27.7px;}.cls-11,.cls-7,.cls-15{fill:#fff;}.cls-16{letter-spacing:.02em;}.cls-17{letter-spacing:.28em;}.cls-12,.cls-15{stroke-width:0px;}.cls-18{letter-spacing:.14em;}</style><linearGradient id="_名称未設定グラデーション_84" x1="27.22" y1="88.22" x2="27.31" y2="88.49" gradientUnits="userSpaceOnUse"><stop offset=".38" stop-color="#fff" stop-opacity=".6"/><stop offset="1" stop-color="#f2e634"/></linearGradient></defs><g id="_編集レイヤー"><path class="cls-6" d="M165.97,10.53l-2-2.65c-6.19-8.21-17.86-9.84-26.06-3.65l-31.58,23.82c-8.21,6.19-9.84,17.86-3.65,26.06l2,2.65c6.19,8.21,17.86,9.84,26.06,3.65l31.58-23.82c8.21-6.19,9.84-17.86,3.65-26.06ZM129.31,54.31c-6.41,4.83-15.52,3.56-20.36-2.85s-3.56-15.52,2.85-20.36c6.41-4.83,15.52-3.56,20.36,2.85,4.83,6.41,3.56,15.52-2.85,20.36ZM158.35,35.54c-6.6,4.98-15.99,3.66-20.97-2.94l-2.49-3.3c-4.98-6.6-3.66-15.99,2.94-20.97h0c6.6-4.98,15.99-3.66,20.97,2.94l2.49,3.3c4.98,6.6,3.66,15.99-2.94,20.97Z"/><path class="cls-4" d="M195.62,87.88l-13.51-23.08c-1.19-2.04-1.29-4.44-.43-6.62,2.68-6.76.57-22.85-81.27-21.53-81.84-1.31-83.95,14.77-81.27,21.53.86,2.18.77,4.58-.43,6.62l-13.51,23.08c-2.34,4-3.57,8.47-3.57,13.01v192.65c0,4.54,1.23,9.02,3.57,13.01l13.51,23.08c1.19,2.04,1.29,4.44.43,6.62-2.68,6.76-.57,22.85,81.27,21.53,81.84,1.31,83.95-14.77,81.27-21.53-.86-2.18-.77-4.58.43-6.62l13.51-23.08c2.34-4,3.57-8.47,3.57-13.01V100.9c0-4.54-1.23-9.02-3.57-13.01Z"/><ellipse class="cls-15" cx="100.41" cy="197.17" rx="78.33" ry="73.7"/><path class="cls-7" d="M116.1,229.68s-9-42.14-9.01-42.17c-.38-1.8,7.63-8.07,8.85-9.03,6.38-5.1,12.11-4.17,19.73-4.17l8.93,41.57-28.5,13.8Z"/><path class="cls-1" d="M118.86,242.71s-9-42.14-9.01-42.17c-.38-1.8,7.63-8.07,8.85-9.03,6.38-5.1,12.11-4.17,19.73-4.17l8.93,41.57-28.5,13.8Z"/><path class="cls-8" d="M104.73,178.35c-2.07-7.98,7.46-11.82,12.64-11.55,5.65.29,11.28,1.91,16.94,1.91"/><line class="cls-8" x1="149.54" y1="145.64" x2="145.18" y2="166.27"/><line class="cls-8" x1="157.01" y1="155.95" x2="153.91" y2="162.56"/><line class="cls-8" x1="165.98" y1="163.22" x2="155.46" y2="170.36"/><path class="cls-7" d="M147.53,251.69l-20.48,6.17c-1.59.48-3.21-.83-3.36-2.73l-.23-2.84c-.14-1.7-1.26-3.11-2.72-3.44l-1.57-.35c-1.66-.37-2.77-2.22-2.48-4.12l.82-5.26-3.24-1.66c-1.26-.65-1.76-2.41-1.07-3.75l2.02-3.92c.76-1.46.46-3.36-.69-4.49l-1.61-1.58c-1.37-1.34-1.99-3.45-1.59-5.44l.4-1.99c.42-2.07,2-3.51,3.85-3.52l19.05-.11c1.3,0,2.17-1.48,1.73-2.89l-3.24-10.23c-.69-2.17.76-4.39,2.75-4.22l4.87.42c1.37.12,2.62,1.03,3.31,2.41l4.27,8.52c.62,1.25,1.87,1.89,3.08,1.59l9.33-2.34"/><path class="cls-7" d="M84.18,229.68s9-42.14,9.01-42.17c.38-1.8-7.63-8.07-8.85-9.03-6.38-5.1-12.11-4.17-19.73-4.17l-8.93,41.57,28.5,13.8Z"/><path class="cls-1" d="M81.42,242.71l9.01-42.17c.38-1.8-7.63-8.07-8.85-9.03-6.38-5.1-12.11-4.17-19.73-4.17l-8.93,41.57,28.5,13.8Z"/><path class="cls-8" d="M95.54,178.35c2.07-7.98-7.46-11.82-12.64-11.55-5.65.29-11.28,1.91-16.94,1.91"/><line class="cls-8" x1="50.74" y1="145.64" x2="55.1" y2="166.27"/><line class="cls-8" x1="43.27" y1="155.95" x2="46.37" y2="162.56"/><line class="cls-8" x1="34.3" y1="163.22" x2="44.82" y2="170.36"/><path class="cls-7" d="M52.74,251.69l20.48,6.17c1.59.48,3.21-.83,3.36-2.73l.23-2.84c.14-1.7,1.26-3.11,2.72-3.44l1.57-.35c1.66-.37,2.77-2.22,2.48-4.12l-.82-5.26,3.24-1.66c1.26-.65,1.76-2.41,1.07-3.75l-2.02-3.92c-.76-1.46-.46-3.36.69-4.49l1.61-1.58c1.37-1.34,1.99-3.45,1.59-5.44l-.4-1.99c-.42-2.07-2-3.51-3.85-3.52l-19.05-.11c-1.3,0-2.17-1.48-1.73-2.89l3.24-10.23c.69-2.17-.76-4.39-2.75-4.22l-4.87.42c-1.37.12-2.62,1.03-3.31,2.41l-4.27,8.52c-.62,1.25-1.87,1.89-3.08,1.59l-9.33-2.34"/><text class="cls-11" transform="translate(12.89 112.17)"><tspan class="cls-18" x="0" y="0">BE</tspan><tspan class="cls-13" x="42.72" y="0">E</tspan><tspan class="cls-17" x="63.49" y="0">R</tspan><tspan class="cls-14" x="90.89" y="0">E</tspan><tspan class="cls-16" x="107.79" y="0">X</tspan><tspan x="130.62" y="0">P</tspan><tspan class="cls-10" x="149.4" y="0">O</tspan></text><path class="cls-15" d="M180.13,94.41c-1.34,0-2.57-.74-3.14-1.9,0,0-.06-.12-.06-.13-.39-.03-.78-.04-1.15-.05-1.19-.03-2.42-.06-3.37-.72-.76-.52-1.23-1.37-1.39-2.51-.14-1.03.1-1.99.7-2.72.58-.7,1.44-1.12,2.43-1.18.09,0,.18,0,.28,0,.1,0,.26,0,.31-.02.02-.02.12-.12.18-.19,1.66-1.83,3.49-2.82,5.2-2.82,2.25,0,4.02,1.64,4.91,4.5,0,0,0,0,.01,0,.12.08.23.16.27.2.53.48.92,1,1.17,1.55.55,1.24.29,2.77-.62,3.73-.51.54-1.18.86-1.89.92-.02,0-.14,0-.17,0-.27,0-.51-.05-.7-.09-.09-.02-.21-.04-.25-.04.02.02-.07.12-.16.23-.1.11-.2.23-.3.33-.59.58-1.39.9-2.25.9Z"/><path class="cls-12" d="M180.11,83.16c1.75,0,3.26,1.31,4.03,4.07.03.1.41.31.49.39.38.34.72.75.92,1.22.38.86.23,1.95-.43,2.64-.33.35-.76.57-1.24.61-.03,0-.06,0-.09,0-.33,0-.65-.13-.95-.13-.17,0-.34.04-.51.17-.25.19-.43.46-.65.68-.43.42-.99.61-1.55.61-.91,0-1.83-.5-2.25-1.34-.1-.2-.18-.43-.37-.55-.14-.1-.33-.11-.5-.13-1.56-.12-3.08.07-4.05-.59-.49-.34-.83-.9-.97-1.83-.21-1.47.66-2.67,2.2-2.76.32-.02.66.02.95-.12.21-.1.37-.29.53-.47,1.46-1.62,3.02-2.46,4.42-2.46M180.11,81.16h0c-2,0-4.01,1.05-5.84,3.04-.06,0-.12,0-.18,0-1.27.07-2.39.62-3.15,1.54-.78.94-1.1,2.19-.92,3.49.2,1.43.81,2.51,1.81,3.2,1.2.82,2.64.86,3.91.89.19,0,.38,0,.57.02.81,1.26,2.26,2.06,3.81,2.06,1.12,0,2.17-.42,2.95-1.18.06-.06.12-.12.18-.19.16.02.34.04.54.04.08,0,.16,0,.24,0,.95-.07,1.85-.51,2.53-1.22,1.2-1.26,1.52-3.2.81-4.83-.3-.68-.77-1.32-1.41-1.89-.04-.03-.07-.06-.11-.09-1.48-4.39-4.49-4.88-5.76-4.88h0Z"/><path class="cls-3" d="M179.57,84.58s2.52.18,2.76,2.76"/><path class="cls-3" d="M183.53,88.74s1.12.88.41,1.93"/><path class="cls-15" d="M28.14,101.49c-.78,0-1.49-.53-1.77-1.33-.19-.53-.16-1.04-.12-1.51.05-.5.11-1,.17-1.51.17-1.46.34-2.84.18-4.2l-.02-.23c-.34.36-.83.77-1.58.83-.06,0-.13,0-.19,0-1.41,0-2.14-1.18-2.58-1.98-1.22-.04-3.8-.2-5.2-.91-.6-.3-.99-.89-1.04-1.57-.05-.68.25-1.33.81-1.72.92-.65,2.38-1.43,4.08-1.43.88,0,1.71.21,2.49.62.1.05.2.08.29.08.06,0,.12-.01.16-.04,1.07-.54,2.64-1.19,4.03-1.19,1.5,0,2.58.78,2.95,2.14.02.07.08.13.16.14,1.35.2,2.36.76,2.91,1.6.5.76.6,1.69.31,2.75-.03.13-.05.23-.04.31.04.45.1.93.17,1.44.19,1.41.4,3.01.1,4.36-.21.96-.9,1.3-1.48,1.3-.99,0-1.86-.96-2.08-1.3-.17-.25-.31-.52-.44-.78-.06.65-.15,1.29-.26,1.93-.07.39-.15.81-.4,1.21-.36.6-.98.98-1.62.98h0Z"/><path class="cls-12" d="M27.86,86.47c.89,0,1.65.34,1.93,1.37.13.48.53.83,1.02.9,1.16.17,2.97.8,2.37,3.04-.06.22-.09.44-.08.67.14,1.66.64,3.86.29,5.49-.08.35-.25.47-.45.47-.43,0-1.02-.56-1.21-.84-.49-.74-.75-1.6-.94-2.46-.14-.65-.04-1.85-.39-2.39-.11-.18-.34-.29-.55-.29-.16,0-.3.06-.38.2-.08.14-.07.3-.05.46.14,2.01.03,4.04-.31,6.03-.05.29-.11.59-.26.85-.15.26-.42.46-.72.46h0c-.36,0-.66-.3-.78-.63-.12-.34-.09-.7-.06-1.06.18-1.96.58-3.95.35-5.93-.09-.76-.06-1.65-.68-1.65-.07,0-.14.01-.22.03-.7.18-.95,1.23-1.83,1.3-.04,0-.07,0-.11,0-1.04,0-1.5-1.2-1.95-1.97,0,0-3.76,0-5.35-.81-.58-.29-.62-1.11-.09-1.49.71-.5,2-1.23,3.47-1.23.64,0,1.32.14,2,.5.25.13.52.2.79.2.22,0,.44-.05.64-.15.86-.44,2.33-1.08,3.55-1.08M27.86,84.36c-1.47,0-3.05.6-4.21,1.16-.87-.42-1.8-.64-2.77-.64-1.98,0-3.64.88-4.69,1.62-.86.61-1.33,1.6-1.26,2.66.08,1.05.68,1.96,1.61,2.43,1.38.7,3.62.93,5.06,1,.57.9,1.53,2.01,3.2,2.01.09,0,.18,0,.27-.01.18-.01.36-.04.52-.08-.03.8-.13,1.64-.23,2.51-.06.51-.12,1.02-.17,1.53-.04.41-.11,1.17.18,1.96.43,1.22,1.54,2.03,2.77,2.03,1.02,0,1.98-.57,2.53-1.49.25-.42.38-.84.45-1.17.51.36,1.13.63,1.82.63,1.23,0,2.24-.86,2.52-2.13.33-1.54.11-3.23-.09-4.73-.06-.47-.12-.92-.16-1.31.46-1.73.01-2.92-.45-3.62-.64-.99-1.72-1.66-3.12-1.97-.63-1.5-2.01-2.39-3.79-2.39h0Z"/><text/><path class="cls-5" d="M26.08,88.35s1.93-.95,2.32-.15"/><path class="cls-2" d="M30.44,90.13s1.72.59,1.19,1.52"/><text class="cls-9" transform="translate(27.93 319.43)"><tspan x="0" y="0">2025</tspan></text></g></svg>